<svg width="16" height="16" viewBox="0 0 16 16" fill="none" xmlns="http://www.w3.org/2000/svg">
<path d="M8 16C6.10578 16 4.26856 15.3261 2.82678 14.1025C2.48825 13.8153 2.17069 13.497 1.883 13.1564C0.668656 11.717 0 9.88584 0 8C0 5.86309 0.832125 3.85413 2.34313 2.34313C3.85413 0.832125 5.86309 0 8 0C10.1369 0 12.1459 0.832125 13.6569 2.34313C15.1679 3.85413 16 5.86309 16 8C16 9.88587 15.3313 11.717 14.1172 13.1562C13.8293 13.497 13.5118 13.8153 13.1731 14.1026C11.7314 15.3261 9.89422 16 8 16ZM8 1C4.14019 1 1 4.14019 1 8C1 9.65016 1.58497 11.2523 2.64716 12.5113C2.89903 12.8096 3.17719 13.0884 3.47375 13.34C4.73513 14.4105 6.34253 15 8 15C9.65747 15 11.2649 14.4105 12.5262 13.34C12.8228 13.0884 13.101 12.8095 13.353 12.5111C14.415 11.2523 15 9.65019 15 8C15 4.14019 11.8598 1 8 1Z" fill="#324552"/>
<path d="M8 8C6.34578 8 5 6.65422 5 5C5 3.34578 6.34578 2 8 2C9.65422 2 11 3.34578 11 5C11 6.65422 9.65422 8 8 8ZM8 3C6.89719 3 6 3.89719 6 5C6 6.10281 6.89719 7 8 7C9.10281 7 10 6.10281 10 5C10 3.89719 9.10281 3 8 3Z" fill="#324552"/>
<path d="M12.8501 14.2214C12.8097 14.2214 12.7688 14.2165 12.7279 14.2062C12.4601 14.139 12.2975 13.8674 12.3647 13.5995C12.4545 13.2419 12.5 12.872 12.5 12.5C12.5 10.0536 10.5111 8.03544 8.06584 8.00031L8 8L7.93416 8.00031C5.48894 8.03544 3.5 10.0536 3.5 12.5C3.5 12.872 3.54553 13.2419 3.63528 13.5995C3.7025 13.8674 3.53988 14.139 3.27206 14.2062C3.00425 14.2734 2.73259 14.1108 2.66537 13.843C2.55562 13.4058 2.5 12.954 2.5 12.5C2.5 11.0444 3.06303 9.67241 4.08537 8.63656C5.10672 7.60175 6.46928 7.02069 7.92206 7.00037C7.92441 7.00034 7.92672 7.00034 7.92906 7.00034L8 7L8.07094 7.00031C8.07328 7.00031 8.07559 7.00031 8.07794 7.00034C9.53072 7.02063 10.8933 7.60172 11.9146 8.63653C12.937 9.67241 13.5 11.0444 13.5 12.5C13.5 12.954 13.4444 13.4058 13.3346 13.843C13.2777 14.0699 13.0739 14.2213 12.8501 14.2214Z" fill="#324552"/>
</svg>
